<svg width="122" height="122" viewBox="0 0 122 122" fill="none" xmlns="http://www.w3.org/2000/svg">
<path d="M76.4547 43.4966H46.79C44.7412 43.4966 43.1004 45.1043 43.1004 47.0894L43.0819 79.4243L50.498 72.2388H76.4547C78.5034 72.2388 80.1628 70.631 80.1628 68.646V47.0894C80.1628 45.1043 78.5034 43.4966 76.4547 43.4966ZM50.498 56.0713H72.7466V59.6641H50.498V56.0713ZM65.3304 65.0532H50.498V61.4605H65.3304V65.0532ZM72.7466 54.2749H50.498V50.6821H72.7466V54.2749Z" fill="#0088FF"/>
<path d="M21.3115 72.4283C21.3115 68.0101 24.8932 64.4283 29.3115 64.4283H36.4281V87.459H29.3115C24.8932 87.459 21.3115 83.8772 21.3115 79.459V72.4283Z" fill="#374151"/>
<path fill-rule="evenodd" clip-rule="evenodd" d="M60.3627 26.1977C42.6121 26.1977 28.1139 41.3734 28.1139 60.2319C28.1139 61.2211 27.3244 62.0231 26.3503 62.0231C25.3763 62.0231 24.5867 61.2211 24.5867 60.2319C24.5867 39.5187 40.5443 22.6152 60.3627 22.6152C80.1812 22.6152 96.1387 39.5187 96.1387 60.2319C96.1387 61.2211 95.3491 62.0231 94.3751 62.0231C93.4011 62.0231 92.6115 61.2211 92.6115 60.2319C92.6115 41.3734 78.1133 26.1977 60.3627 26.1977Z" fill="#374151"/>
<path fill-rule="evenodd" clip-rule="evenodd" d="M84.8802 91.3887L89.6123 85.3808L91.5797 86.9794L86.234 93.7662L69.3723 96.401L68.9892 93.8718L84.8802 91.3887Z" fill="#374151"/>
<path d="M99.4138 79.459C99.4138 83.8772 95.8321 87.459 91.4138 87.459L84.2972 87.459L84.2972 64.4283L91.4138 64.4283C95.8321 64.4283 99.4138 68.0101 99.4138 72.4283L99.4138 79.459Z" fill="#374151"/>
<ellipse cx="66.6612" cy="95.1363" rx="5.03887" ry="5.11791" fill="#374151"/>
</svg>
