<svg width="119" height="77" viewBox="0 0 119 77" fill="none" xmlns="http://www.w3.org/2000/svg">
<path d="M82.3189 31.8837C81.8422 32.3629 81.3656 32.7683 80.9256 33.2106C75.4255 38.7396 69.8888 44.2685 64.4255 49.8344C63.6922 50.5716 63.1055 50.8296 62.0421 50.461C61.0521 50.1292 59.8788 50.0187 58.8521 50.1292C53.4988 50.6453 50.0154 55.3265 50.9688 60.5974C51.8121 65.4629 56.8721 68.6697 61.7488 67.4533C66.6988 66.237 69.4488 61.224 67.8722 56.1374C67.5788 55.179 67.8722 54.6999 68.4955 54.0732C73.4089 49.1709 78.2856 44.2317 83.1989 39.2925C84.2989 38.1867 85.5089 37.2283 86.6089 36.2331C84.9956 34.6482 83.6756 33.3212 82.3189 31.8837ZM62.4088 0C60.3921 0 58.5955 0 56.7255 0C56.7255 3.90713 56.7255 7.70369 56.7255 11.5371C58.6688 11.5371 60.5388 11.5371 62.4088 11.5371C62.4088 7.66683 62.4088 3.87027 62.4088 0ZM33.552 19.4988C35.2754 18.5036 36.8887 17.5452 38.612 16.55C36.632 13.1221 34.7254 9.76783 32.7453 6.33988C30.9853 7.37195 29.372 8.3303 27.6853 9.28866C29.6653 12.7535 31.572 16.0708 33.552 19.4988ZM20.352 32.7683C16.9419 30.7779 13.6053 28.8612 10.1952 26.8708C9.16857 28.6769 8.2519 30.2618 7.2619 31.9943C10.7086 33.9847 14.0086 35.9014 17.3819 37.8918C18.4086 36.1225 19.362 34.5007 20.352 32.7683ZM101.679 37.855C105.126 35.8277 108.426 33.9478 111.836 31.9574C110.846 30.225 109.892 28.6032 108.902 26.8708C105.456 28.8612 102.119 30.8147 98.7457 32.7683C99.7357 34.5376 100.652 36.1225 101.679 37.855ZM44.5887 14.0804C46.5321 13.5644 48.3287 13.0852 50.2354 12.5692C49.2088 8.6989 48.1821 4.97607 47.1921 1.17951C45.2121 1.73241 43.4521 2.21158 41.5454 2.72762C42.5721 6.56103 43.5621 10.247 44.5887 14.0804ZM71.9055 1.17951C70.8789 5.01292 69.8888 8.73576 68.8622 12.5692C70.8789 13.0852 72.6389 13.5644 74.5089 14.0436C75.5355 10.1733 76.5255 6.48731 77.5155 2.69076C75.5722 2.17472 73.8122 1.69555 71.9055 1.17951ZM85.5456 19.4988C87.5256 16.0708 89.4323 12.7535 91.4123 9.28866C89.6889 8.29344 88.1123 7.37195 86.3523 6.33988C84.3722 9.76783 82.4656 13.1221 80.4856 16.55C82.2089 17.5452 83.7856 18.4667 85.5456 19.4988ZM3.66855 77C7.44523 75.9679 11.1486 75.0096 14.9619 73.9775C14.4119 71.9871 13.8986 70.1441 13.4219 68.3011C9.53524 69.37 5.86856 70.3652 2.12854 71.3605C2.67854 73.314 3.15521 75.0833 3.66855 77ZM104.136 73.9406C107.986 74.9727 111.652 75.9679 115.429 76.9631C115.942 75.0096 116.419 73.2034 116.932 71.2867C113.082 70.2547 109.416 69.2595 105.639 68.2642C105.126 70.2178 104.649 72.0239 104.136 73.9406ZM13.4219 49.5026C13.9353 47.6228 14.4486 45.7798 14.9619 43.8262C11.0752 42.7942 7.40856 41.7989 3.63188 40.8037C3.11854 42.7942 2.64187 44.6003 2.12854 46.4801C5.97856 47.5122 9.60857 48.4706 13.4219 49.5026ZM105.676 49.5026C109.526 48.4706 113.229 47.4753 117.006 46.4433C116.456 44.4529 115.979 42.7204 115.466 40.7669C111.652 41.7989 107.949 42.7942 104.172 43.8262C104.649 45.8535 105.126 47.6228 105.676 49.5026ZM0.9552 56.0268C0.9552 57.9804 0.9552 59.7865 0.9552 61.7032C4.84188 61.7032 8.65524 61.7032 12.5053 61.7032C12.5053 59.7865 12.5053 57.9435 12.5053 56.0268C8.65524 56.0268 4.91522 56.0268 0.9552 56.0268ZM118.179 55.9162C114.476 55.9162 110.956 55.8794 107.436 55.9531C107.142 55.9531 106.592 56.5428 106.556 56.8746C106.446 58.4596 106.519 60.0445 106.519 61.6663C110.516 61.6663 114.329 61.6663 118.179 61.6663C118.179 59.7865 118.179 58.0172 118.179 55.9162ZM16.2453 19.1671C18.9953 21.9315 21.7086 24.6223 24.312 27.2393C25.5586 26.023 26.9153 24.7329 28.2353 23.4797C25.4853 20.752 22.772 18.0613 20.132 15.4442C18.8486 16.6606 17.5286 17.9876 16.2453 19.1671ZM102.742 19.4251C101.386 18.0613 100.102 16.6975 99.039 15.6285C96.399 18.2824 93.6856 20.9732 91.1556 23.4797C92.3289 24.7329 93.6123 26.0598 94.8223 27.3499C97.499 24.6592 100.176 22.0053 102.742 19.4251Z" fill="white"/>
<path d="M82.3189 31.8839C83.6756 33.2845 84.9956 34.6483 86.5723 36.2702C85.4722 37.2654 84.2622 38.2606 83.1622 39.3295C78.2489 44.2319 73.3722 49.1711 68.4588 54.1103C67.8355 54.7 67.5422 55.2161 67.8355 56.1744C69.4122 61.2611 66.6622 66.274 61.7121 67.4904C56.8354 68.7067 51.8121 65.4631 50.9321 60.6344C50.0154 55.3635 53.4621 50.6823 58.8155 50.1663C59.8788 50.0557 61.0155 50.1663 62.0055 50.498C63.0688 50.8666 63.6555 50.6086 64.3888 49.8714C69.8888 44.3056 75.3889 38.7766 80.8889 33.2477C81.3656 32.7685 81.8422 32.363 82.3189 31.8839ZM56.5788 58.8283C56.5054 60.3396 57.7521 61.7402 59.2921 61.814C60.9421 61.9245 62.3355 60.7082 62.4455 59.0863C62.5555 57.4645 61.2721 56.027 59.6588 55.9533C58.1188 55.8795 56.6888 57.2065 56.5788 58.8283Z" fill="#FF8383"/>
<path d="M62.4087 0C62.4087 3.87027 62.4087 7.66683 62.4087 11.5371C60.502 11.5371 58.6687 11.5371 56.7253 11.5371C56.7253 7.70369 56.7253 3.90713 56.7253 0C58.5954 0 60.392 0 62.4087 0Z" fill="#FF8383"/>
<path d="M33.552 19.4985C31.572 16.0706 29.6653 12.7532 27.6853 9.28836C29.372 8.29315 30.9853 7.37166 32.7453 6.33958C34.7253 9.76754 36.632 13.1218 38.612 16.5497C36.8887 17.5818 35.2753 18.5033 33.552 19.4985Z" fill="#FF8383"/>
<path d="M20.3521 32.7683C19.3254 34.5007 18.4088 36.1594 17.4188 37.855C14.0454 35.9014 10.7454 33.9847 7.29871 31.9574C8.25204 30.2619 9.20538 28.64 10.2321 26.8339C13.6421 28.8243 16.9788 30.7779 20.3521 32.7683Z" fill="#FF8383"/>
<path d="M101.679 37.8547C100.689 36.1223 99.7724 34.5373 98.7457 32.768C102.119 30.8145 105.456 28.8609 108.902 26.8705C109.892 28.6029 110.809 30.2247 111.836 31.9571C108.426 33.9476 105.126 35.8274 101.679 37.8547Z" fill="#FF8383"/>
<path d="M44.5889 14.0803C43.5622 10.2469 42.5722 6.56095 41.5455 2.72754C43.4522 2.2115 45.1755 1.73232 47.1922 1.17943C48.2189 4.93912 49.2089 8.69882 50.2356 12.5691C48.2922 13.0851 46.4956 13.5643 44.5889 14.0803Z" fill="#FF8383"/>
<path d="M71.9055 1.17943C73.8122 1.69546 75.5722 2.17464 77.5522 2.69068C76.5622 6.48723 75.5722 10.1732 74.5455 14.0435C72.6755 13.5643 70.8788 13.0851 68.8988 12.5691C69.8888 8.73567 70.8788 5.01284 71.9055 1.17943Z" fill="#FF8383"/>
<path d="M85.5456 19.4985C83.7489 18.4664 82.2089 17.5449 80.4856 16.5497C82.4289 13.1218 84.3723 9.8044 86.3523 6.33958C88.1123 7.37166 89.7256 8.29315 91.4123 9.28836C89.4323 12.7532 87.5256 16.0706 85.5456 19.4985Z" fill="#FF8383"/>
<path d="M13.422 49.5027C9.57203 48.4706 5.94201 47.4754 2.12866 46.4802C2.642 44.6003 3.11867 42.7942 3.632 40.8038C7.40869 41.799 11.0754 42.7942 14.9621 43.8263C14.4487 45.7798 13.9354 47.6228 13.422 49.5027Z" fill="#FF8383"/>
<path d="M105.676 49.5024C105.162 47.5857 104.686 45.8165 104.135 43.826C107.912 42.794 111.616 41.7988 115.429 40.7667C115.942 42.6834 116.419 44.4527 116.969 46.4431C113.229 47.4752 109.489 48.4704 105.676 49.5024Z" fill="#FF8383"/>
<path d="M0.9552 56.0267C4.91522 56.0267 8.65524 56.0267 12.5053 56.0267C12.5053 57.9434 12.5053 59.7864 12.5053 61.7031C8.61857 61.7031 4.84188 61.7031 0.9552 61.7031C0.9552 59.7864 0.9552 57.9803 0.9552 56.0267Z" fill="#FF8383"/>
<path d="M118.179 55.916C118.179 57.9801 118.179 59.7494 118.179 61.6661C114.329 61.6661 110.516 61.6661 106.519 61.6661C106.519 60.0442 106.482 58.4593 106.556 56.8743C106.592 56.5426 107.106 55.9897 107.436 55.9528C110.956 55.916 114.476 55.916 118.179 55.916Z" fill="#FF8383"/>
<path d="M16.2454 19.1667C17.492 17.9503 18.8487 16.6602 20.0954 15.4439C22.7354 18.0609 25.4487 20.7517 28.1988 23.4793C26.8787 24.7325 25.5221 26.0226 24.2754 27.239C21.7087 24.6588 18.9954 21.9312 16.2454 19.1667Z" fill="#FF8383"/>
<path d="M102.742 19.425C100.176 22.0052 97.499 24.696 94.8223 27.3867C93.6123 26.0967 92.329 24.7328 91.1556 23.5165C93.6857 21.01 96.3623 18.2824 99.039 15.6653C100.102 16.6974 101.386 18.0244 102.742 19.425Z" fill="#FF8383"/>
<path d="M56.5791 58.8279C56.6525 57.2061 58.1191 55.8792 59.6591 55.9529C61.2725 56.0266 62.5192 57.4641 62.4458 59.086C62.3358 60.7078 60.9425 61.9242 59.2925 61.8136C57.7525 61.7399 56.5058 60.3392 56.5791 58.8279Z" fill="white"/>
</svg>
